<svg version="1.2" xmlns="http://www.w3.org/2000/svg" viewBox="0 0 256 150" width="256" height="150">
	<title>php-svg</title>
	<style>
		.s0 { fill: #8993be } 
		.s1 { fill: #232531 } 
	</style>
	<g id="Layer">
		<path id="Layer" class="s0" d="m128 141.3c-70.8 0-128-29.8-128-66.7 0-36.8 57.2-66.6 128-66.6 70.8 0 128 29.8 128 66.6 0 36.9-57.2 66.7-128 66.7z"/>
		<path id="Layer" fill-rule="evenodd" class="s1" d="m35.9 114.1l14.1-71h32.4c14 0.8 21.1 7.9 21.1 20.1 0 21.1-16.7 33.3-31.6 32.5h-15.8l-3.5 18.4zm34.2-31.6c7.9-0.9 14.9-3.5 15.8-18.4 0-5.3-4.4-7.9-10.5-7.9h-11.4l-4.4 26.3c0 0 10.5 0 10.5 0zm30 13.2l14.1-71h16.6l-3.5 18.4h15.8c14 0.8 19.3 7.9 17.5 16.6l-6.1 36h-17.5l6.1-32.5c0.9-4.4 0.9-7-5.3-7h-13.1l-7.9 39.5zm53.2 18.4l14.1-71h32.4c14 0.8 21 7.9 21 20.1 0 21.1-16.6 33.3-31.5 32.5h-15.8l-3.5 18.4zm34.2-31.6c7.9-0.9 14.9-3.5 15.8-18.4 0-5.3-4.4-7.9-10.6-7.9h-11.3l-4.4 26.3c0 0 10.5 0 10.5 0z"/>
	</g>
</svg>